<svg xmlns="http://www.w3.org/2000/svg" viewBox="0 0 512 512" width="512" height="512">
  <rect width="512" height="512" rx="112" fill="#3b291b"/>
  <circle cx="256" cy="256" r="212" fill="none" stroke="#e2a25a" stroke-width="8" stroke-dasharray="16 24"/>
  <path d="M176 244c-24 0-40-16-40-40s16-40 40-40c0-24 24-48 80-48s80 24 80 48c24 0 40 16 40 40s-16 40-40 40z" fill="#fbf6ec"/>
  <rect x="176" y="244" width="160" height="32" rx="8" fill="#e2a25a"/>
  <path d="M192 324c16-16 40-8 64 8 24-16 48-24 64-8-16 24-40 24-64 8-24 16-48 16-64-8z" fill="#fbf6ec"/>
</svg>
